
          <svg data-logo="logo" xmlns="http://www.w3.org/2000/svg" viewBox="0 0 48 42">
            <g id="logogram" transform="translate(0, 1) rotate(0)"><path d="M20.5 0C9.4543 0 0.5 8.9543 0.5 20C11.5457 20 20.5 11.0457 20.5 0Z" fill="#45D2B0"/><path d="M20.5 40C31.5457 40 40.5 31.0457 40.5 20C29.4543 20 20.5 28.9543 20.5 40Z" fill="#45D2B0"/><path d="M20.5 0C31.5457 0 40.5 8.9543 40.5 20C29.4543 20 20.5 11.0457 20.5 0Z" fill="#23216E"/><path d="M20.5 40C9.4543 40 0.499999 31.0457 0.5 20C11.5457 20 20.5 28.9543 20.5 40Z" fill="#23216E"/></g>
            <g id="logotype" transform="translate(47, 21)"><path fill="#111111" d=""/></g>
            
          </svg>
        